# xmcd
#
# Track frame offsets:
#	150
#	19135
#	31332
#	49992
#	67052
#	83986
#	98537
#	116623
#	131742
#	147934
#	155316
#	173093
#	184940
#	199465
#	211243
#
# Disc length: 3013 seconds
#
# Revision: 1
# Processed by: cddbd v1.5.2PL0 Copyright (c) Steve Scherf et al.
# Submitted via: audiograbber 1.83.01
#
DISCID=d70bc30f
DTITLE=Various Artist - FH The Very Best Of Country Vol 4
DYEAR=1900
DGENRE=Country
TTITLE0=Garth Brooks - Friends In Low Places
TTITLE1=Johnny Paycheck - Take This Job And Shove It
TTITLE2=Toby Keith - I Love This Bar
TTITLE3=Toby Keith And Willie Nelson - Beer For My Horses
TTITLE4=Big and Rich - Save A Horse (Ride A Cowboy)
TTITLE5=Various Artist - Battle Hymn Of The Republic
TTITLE6=Alan Jackson and Jimmy Buffett - It's Five O'Clock Somewhere
TTITLE7=Kenny Chesney - Keg In The Closet
TTITLE8=Kenny Chesney - No Shoes, No Shirt, No Problem
TTITLE9=Various Artist - Yellow Rose Of Texas
TTITLE10=Brad Paisley - We Danced
TTITLE11=Alan Jackson - Chattahoochee
TTITLE12=Hank Williams Jr. - All My Rowdy Friends Are Coming Over Tonight
TTITLE13=Brooks and Dunn - Beer Thirty
TTITLE14=Brooks and Dunn - Boot Scootin' Boogie
EXTD=
EXTT0=
EXTT1=
EXTT2=
EXTT3=
EXTT4=
EXTT5=
EXTT6=
EXTT7=
EXTT8=
EXTT9=
EXTT10=
EXTT11=
EXTT12=
EXTT13=
EXTT14=
PLAYORDER=
